<?xml version="1.0" encoding="UTF-8" standalone="no"?>
<!-- Created with Inkscape (http://www.inkscape.org/) -->

<svg
   width="594mm"
   height="841mm"
   viewBox="0 0 2245.0393 3178.5828"
   version="1.1"
   id="svg1"
   sodipodi:docname="poster.svg"
   inkscape:version="1.3.2 (091e20e, 2023-11-25, custom)"
   xml:space="preserve"
   xmlns:inkscape="http://www.inkscape.org/namespaces/inkscape"
   xmlns:sodipodi="http://sodipodi.sourceforge.net/DTD/sodipodi-0.dtd"
   xmlns:xlink="http://www.w3.org/1999/xlink"
   xmlns="http://www.w3.org/2000/svg"
   xmlns:svg="http://www.w3.org/2000/svg"><sodipodi:namedview
     id="namedview1"
     pagecolor="#ffffff"
     bordercolor="#000000"
     borderopacity="0.25"
     inkscape:showpageshadow="2"
     inkscape:pageopacity="0.0"
     inkscape:pagecheckerboard="0"
     inkscape:deskcolor="#d1d1d1"
     inkscape:document-units="mm"
     inkscape:export-bgcolor="#2bfcff00"
     inkscape:zoom="0.72785002"
     inkscape:cx="1249.5706"
     inkscape:cy="796.18051"
     inkscape:window-width="2560"
     inkscape:window-height="1369"
     inkscape:window-x="-8"
     inkscape:window-y="-8"
     inkscape:window-maximized="1"
     inkscape:current-layer="layer1" /><defs
     id="defs1"><linearGradient
       id="linearGradient7"
       inkscape:collect="always"><stop
         style="stop-color:#868686;stop-opacity:0.24242425;"
         offset="0"
         id="stop8" /><stop
         style="stop-color:#dbdbdb;stop-opacity:0.84242421;"
         offset="1"
         id="stop7" /></linearGradient><rect
       x="8.2434565"
       y="13.739094"
       width="2214.742"
       height="417.66846"
       id="rect4" /><rect
       x="585.28541"
       y="228.06896"
       width="0"
       height="85.182384"
       id="rect3" /><linearGradient
       id="linearGradient3"
       inkscape:collect="always"><stop
         style="stop-color:#292929;stop-opacity:1;"
         offset="0"
         id="stop10" /><stop
         style="stop-color:#363636;stop-opacity:1;"
         offset="0.51892745"
         id="stop12" /><stop
         style="stop-color:#292929;stop-opacity:1;"
         offset="1"
         id="stop11" /></linearGradient><linearGradient
       id="linearGradient1"
       inkscape:collect="always"><stop
         style="stop-color:#292929;stop-opacity:1;"
         offset="0"
         id="stop1" /><stop
         style="stop-color:#363636;stop-opacity:1;"
         offset="1"
         id="stop2" /></linearGradient><linearGradient
       inkscape:collect="always"
       xlink:href="#linearGradient1"
       id="linearGradient2"
       x1="0"
       y1="3065.1968"
       x2="2245.0393"
       y2="3065.1968"
       gradientUnits="userSpaceOnUse" /><linearGradient
       inkscape:collect="always"
       xlink:href="#linearGradient3"
       id="linearGradient4"
       x1="0"
       y1="226.77165"
       x2="2245.0393"
       y2="226.77165"
       gradientUnits="userSpaceOnUse"
       gradientTransform="scale(1,0.95833331)" /><rect
       x="8.2434568"
       y="13.739094"
       width="2214.7419"
       height="417.66846"
       id="rect4-9" /><linearGradient
       inkscape:collect="always"
       xlink:href="#linearGradient7"
       id="linearGradient8"
       x1="1598.0477"
       y1="276.84277"
       x2="1970.6012"
       y2="276.84277"
       gradientUnits="userSpaceOnUse"
       gradientTransform="rotate(15,1621.0047,-439.51994)" /></defs><g
     inkscape:label="Base"
     inkscape:groupmode="layer"
     id="layer1"><rect
       style="mix-blend-mode:normal;fill:url(#linearGradient4);stroke-width:1.01636"
       id="rect1"
       width="2245.0393"
       height="434.64566"
       x="0"
       y="6.9388939e-18"
       inkscape:label="Header" /><rect
       style="fill:url(#linearGradient2);fill-opacity:1;stroke-width:0.734137"
       id="Footer"
       width="2245.0393"
       height="226.77165"
       x="0"
       y="2951.811"
       inkscape:label="Footer" /></g><g
     inkscape:groupmode="layer"
     id="layer4"
     inkscape:label="Header Content"><path
       fill="#000000"
       d="m 1673.1123,223.99283 c 3.5213,14.67519 -14.4193,25.15733 -35.1623,29.21178 -9.6797,-2.4662 -19.1195,-1.12141 -27.0997,1.47164 l -11.2573,-21.41106 c 16.6554,-20.28996 61.7971,-32.80963 71.7108,-13.95677 a 20.225105,20.225105 0 0 1 1.7975,4.69145 z m -71.3296,34.73098 -11.4517,-21.79881 c -43.67,11.18888 -13.483,51.31382 11.4519,21.79803 z m -106.7931,44.4121 a 20.224299,20.224299 0 0 0 -1.7983,-4.69175 c -9.9129,-18.85258 -55.0537,-6.3335 -71.7092,13.95723 l 11.2574,21.41109 c 7.98,-2.59307 17.4168,-3.92949 27.1001,-1.47319 20.7417,-4.05313 38.6823,-14.53525 35.1623,-29.2118 z m -71.3312,34.73051 -11.4492,-21.799 c -43.652,11.19378 -13.4741,51.3179 11.4527,21.78913 z m 198.4878,-1.10381 c -6.0217,-13.83665 -26.655,-11.4004 -45.6537,-2.15806 -6.2469,7.78879 -14.5916,12.40491 -22.5206,15.13998 l 3.8986,23.89567 c 25.5162,6.16647 69.0969,-11.00955 65.6587,-32.03148 a 20.224299,20.224299 0 0 0 -1.387,-4.82808 z m -77.8626,15.21719 c -37.6797,-8.55857 -37.6189,41.6538 3.9812,24.2902 z m 247.771,-105.78654 c -9.2682,-11.90771 -28.6135,-4.42416 -44.7543,9.20163 -4.1146,9.10145 -11.0886,15.63092 -18.0635,20.24915 l 9.7061,22.15742 c 26.2378,-0.31313 64.2363,-27.7496 55.6659,-47.26617 a 20.224299,20.224299 0 0 0 -2.5346,-4.33756 z m -71.6461,34.03397 c -38.6268,1.04511 -26.1275,49.68168 9.8777,22.54991 l -9.8802,-22.5406 z"
       id="path1"
       style="fill:url(#linearGradient8);stroke-width:0.804594" /><text
       xml:space="preserve"
       id="text3"
       style="font-size:73.3333px;white-space:pre;shape-inside:url(#rect4);fill:#ffffff;fill-opacity:1"
       transform="translate(-11.991381,41.274479)"
       x="635.41864"
       y="0"
       inkscape:label="Header text"><tspan
         x="254.57561"
         y="80.642472"
         id="tspan3"><tspan
           style="font-family:Verdana;-inkscape-font-specification:Verdana;text-align:center;text-anchor:middle"
           id="tspan1">Cryptocurrency Wallet Network Traffic Analysis</tspan></tspan></text><text
       xml:space="preserve"
       id="text3-3"
       style="font-size:53.3333px;white-space:pre;shape-inside:url(#rect4-9);fill:#ffffff;fill-opacity:1"
       transform="translate(143.80949,248.26667)"
       x="635.41864"
       y="0"
       inkscape:label="author"><tspan
         x="8.2441406"
         y="62.395869"
         id="tspan8">Author: <tspan
   style="font-weight:bold"
   id="tspan4">Denis Hromada</tspan></tspan></text><text
       xml:space="preserve"
       style="font-style:normal;font-variant:normal;font-weight:normal;font-stretch:normal;font-size:53.3333px;font-family:Verdana;-inkscape-font-specification:Verdana;text-align:start;text-anchor:start;fill:#ffffff;fill-opacity:1"
       x="44.762371"
       y="370.48047"
       id="text5"
       inkscape:label="supervisor"><tspan
         sodipodi:role="line"
         id="tspan5"
         x="44.762371"
         y="370.48047"
         style="font-size:53.3333px;text-align:start;text-anchor:start">Supervisor: <tspan
   style="font-weight:bold"
   id="tspan7">Ing. Vladimír Veselý Ph.D.</tspan></tspan></text><g
       style="fill:#ffffff;fill-opacity:0.917012"
       id="g8"
       transform="matrix(0.40329316,0,0,0.40329316,1895.7459,178.73822)"><g
         id="g2"
         style="fill:#ffffff;fill-opacity:0.917012">
	<g
   id="g1"
   style="fill:#ffffff;fill-opacity:0.917012">
		<path
   d="M 489.573,427.178 365.638,303.242 303.243,365.637 427.179,489.572 c 2.597,2.597 6.805,2.597 9.403,0 l 52.992,-52.992 c 2.596,-2.596 2.596,-6.804 -0.001,-9.402 z"
   id="path1-3"
   style="fill:#ffffff;fill-opacity:0.917012" />
	</g>
</g><g
         id="g4"
         style="fill:#ffffff;fill-opacity:0.917012">
	<g
   id="g3"
   style="fill:#ffffff;fill-opacity:0.917012">
		<path
   d="m 349.145,286.75 -21.654,-21.654 c -2.597,-2.597 -6.806,-2.597 -9.403,0 l -9.794,9.794 -17.223,-17.222 c 47.035,-63.239 42.041,-152.973 -15.345,-210.36 -63.077,-63.077 -165.343,-63.077 -228.419,0 -63.075,63.076 -63.076,165.342 0,228.418 57.388,57.386 147.123,62.381 210.361,15.345 l 17.223,17.222 -9.795,9.795 c -2.596,2.597 -2.596,6.805 10e-4,9.402 l 21.653,21.655 5.283,5.282 62.395,-62.395 z m -100.496,-38.1 c -48.151,48.151 -126.219,48.151 -174.372,0 -48.151,-48.151 -48.15,-126.22 0.002,-174.371 48.151,-48.152 126.219,-48.152 174.37,0 48.152,48.151 48.153,126.219 0,174.371 z"
   id="path2"
   style="fill:#ffffff;fill-opacity:0.917012" />
	</g>
</g></g></g><g
     inkscape:groupmode="layer"
     id="layer3"
     inkscape:label="MainWindow" /><g
     inkscape:groupmode="layer"
     id="layer2"
     inkscape:label="Logos"><image
       preserveAspectRatio="none"
       inkscape:svg-dpi="96"
       width="641.91998"
       height="132.28"
       xlink:href="FIT_color_CMYK_EN.svg"
       id="image1"
       x="63.694424"
       y="3002.9512"
       inkscape:label="fit logo" /><image
       preserveAspectRatio="none"
       inkscape:svg-dpi="96"
       width="603.26898"
       height="124.86639"
       xlink:href="excel-fit-2024-logo.svg"
       id="image1-3"
       x="1574.1292"
       y="3002.9512"
       inkscape:label="excel logo" /></g></svg>
